<svg class="svg-icon" width="17" height="17" viewBox="0 0 1024 1024" version="1.1" xmlns="http://www.w3.org/2000/svg">
    <path d="M882.9 452c15.8-15.4 7.1-42.3-14.8-45.5l-215.7-31.3c-8.7-1.3-16.2-6.7-20.1-14.6l-96.5-195.4c-9.8-19.8-38-19.8-47.8 0l-96.5 195.4c-3.9 7.9-11.4 13.3-20.1 14.6l-215.7 31.3c-21.9 3.2-30.6 30-14.8 45.5L297 604.1c6.3 6.1 9.1 14.9 7.7 23.6L268 842.5c-3.7 21.8 19.1 38.4 38.7 28.1l192.9-101.4c7.8-4.1 17-4.1 24.8 0l192.9 101.4c19.6 10.3 42.4-6.3 38.7-28.1l-36.8-214.8c-1.5-8.6 1.4-17.5 7.7-23.6l156-152.1zM665.5 596.4l36.2 211.2L512 707.9l-189.7 99.7 36.2-211.2-153.4-149.6L417.2 416 512 223.8 606.8 416l212.1 30.8-153.4 149.6z" />
</svg>